   <svg display="none" 
   xmlns="http://www.w3.org/2000/svg">
        <symbol id="closed-door" viewBox="0 0 476.195 476.195">
            <g>
                <rect x="18.999" y="422.297" width="92.107" height="53.898"/>
                <rect x="365.089" y="422.297" width="92.105" height="53.898"/>
                <rect x="361.421" y="381.613" width="53.73" height="34.219"/>
                <rect x="61.042" y="381.613" width="53.732" height="34.219"/>
                <rect x="18.999" y="321.246" width="92.107" height="53.898"/>
                <rect x="18.999" y="220.198" width="92.107" height="53.899"/>
                <rect x="365.089" y="321.246" width="92.105" height="53.898"/>
                <rect x="365.089" y="220.198" width="92.105" height="53.899"/>
                <path d="M362.622,184.983l95.24-22.63l-28.656-82.439l-97.271,45.298C347.058,141.738,357.882,162.256,362.622,184.983z"/>
                <path d="M144.26,125.211L46.99,79.913l-28.657,82.439l95.241,22.63C118.315,162.256,129.138,141.738,144.26,125.211z"/>
                <path d="M325.913,0h-175.63l27.712,98.915c17.91-9.644,38.378-15.122,60.104-15.122s42.193,5.479,60.105,15.122L325.913,0z"/>
                <path d="M361.421,213.731h53.73v-34.582l-55.152,13.104c0.938,6.112,1.422,12.372,1.422,18.743V213.731z"/>
                <rect x="61.042" y="280.564" width="53.732" height="34.217"/>
                <rect x="361.421" y="280.564" width="53.73" height="34.217"/>
                <path d="M173.296,106.116l-23.843-85.105l-50.494,6.02L74.616,85.647l78.156,36.396
                    C159.021,116.045,165.901,110.702,173.296,106.116z"/>
                <path d="M323.423,122.041l77.312-36.003l-26.342-58.999l-47.799-5.502l-23.695,84.578
                    C310.296,110.702,317.175,116.045,323.423,122.041z"/>
                <path d="M61.042,213.731h53.732v-2.734c0-6.371,0.485-12.631,1.422-18.743L61.042,179.15V213.731z"/>
                <path d="M243.836,476.195h38.523V102.823c-11.976-4.905-24.943-7.885-38.523-8.541V476.195z"/>
                <path d="M193.836,476.195h38.523V94.282c-13.58,0.656-26.548,3.636-38.523,8.541V476.195z"/>
                <path d="M293.837,108.265v367.93h38.521V141.93C322.187,128.068,309.032,116.528,293.837,108.265z"/>
                <path d="M343.837,476.195h11.117V210.996c0-17.811-3.99-34.688-11.117-49.794V476.195z"/>
                <path d="M143.836,141.93v334.265h38.523v-367.93C167.163,116.528,154.01,128.068,143.836,141.93z M173.573,292.23
                    c0,5.785-4.689,10.476-10.475,10.476s-10.475-4.688-10.475-10.476c0-5.785,4.689-10.475,10.475-10.475
                    S173.573,286.445,173.573,292.23z"/>
                <path d="M121.242,476.195h11.118V161.202c-7.127,15.106-11.118,31.983-11.118,49.794V476.195z"/>
            </g>
        </symbol>
        <symbol id="open-door" viewBox="0 0 477 477">
            <g id="Layer">
                <path id="Layer" class="shp0" d="M19 422.3L111.11 422.3L111.11 476.2L19 476.2L19 422.3Z" />
                <path id="Layer" class="shp0" d="M365.09 422.3L457.19 422.3L457.19 476.2L365.09 476.2L365.09 422.3Z" />
                <path id="Layer" class="shp0" d="M361.42 381.61L415.15 381.61L415.15 415.83L361.42 415.83L361.42 381.61Z" />
                <path id="Layer" class="shp0" d="M61.04 381.61L114.77 381.61L114.77 415.83L61.04 415.83L61.04 381.61Z" />
                <path id="Layer" class="shp0" d="M19 321.25L111.11 321.25L111.11 375.14L19 375.14L19 321.25Z" />
                <path id="Layer" class="shp0" d="M19 220.2L111.11 220.2L111.11 274.1L19 274.1L19 220.2Z" />
                <path id="Layer" class="shp0" d="M365.09 321.25L457.19 321.25L457.19 375.14L365.09 375.14L365.09 321.25Z" />
                <path id="Layer" class="shp0" d="M365.09 220.2L457.19 220.2L457.19 274.1L365.09 274.1L365.09 220.2Z" />
                <path id="Layer" class="shp0" d="M362.62 184.98L457.86 162.35L429.21 79.91L331.94 125.21C347.06 141.74 357.88 162.26 362.62 184.98Z" />
                <path id="Layer" class="shp0" d="M144.26 125.21L46.99 79.91L18.33 162.35L113.57 184.98C118.31 162.26 129.14 141.74 144.26 125.21Z" />
                <path id="Layer" class="shp0" d="M325.91 0L150.28 0L178 98.92C195.91 89.27 216.37 83.79 238.1 83.79C259.82 83.79 280.29 89.27 298.2 98.92L325.91 0Z" />
                <path id="Layer" class="shp0" d="M361.42 213.73L415.15 213.73L415.15 179.15L360 192.25C360.94 198.36 361.42 204.63 361.42 211L361.42 213.73L361.42 213.73Z" />
                <path id="Layer" class="shp0" d="M61.04 280.56L114.77 280.56L114.77 314.78L61.04 314.78L61.04 280.56Z" />
                <path id="Layer" class="shp0" d="M361.42 280.56L415.15 280.56L415.15 314.78L361.42 314.78L361.42 280.56Z" />
                <path id="Layer" class="shp0" d="M173.3 106.12L149.45 21.01L98.96 27.03L74.62 85.65L152.77 122.04C159.02 116.05 165.9 110.7 173.3 106.12Z" />
                <path id="Layer" class="shp0" d="M323.42 122.04L400.74 86.04L374.39 27.04L326.59 21.54L302.9 106.11C310.3 110.7 317.18 116.05 323.42 122.04Z" />
                <path id="Layer" class="shp0" d="M61.04 213.73L114.77 213.73L114.77 211C114.77 204.63 115.26 198.37 116.2 192.25L61.04 179.15L61.04 213.73Z" />
                <path id="Layer" class="shp0" d="M262.31 461.87L292.81 466.59L292.81 112C283.16 108.81 272.88 107.59 262.31 108.61L262.31 461.87L262.31 461.87Z" />
                <path id="Layer" class="shp0" d="M225.01 456.1L253.53 460.51L253.53 109.97C243.31 112.14 233.72 116.31 225.01 122.02L225.01 456.1Z" />
                <path id="Layer" class="shp0" d="M302.22 115.82L302.22 468.04L334.92 473.1L334.92 144.26C326.11 131.74 314.91 122 302.22 115.82Z" />
                <path id="Layer" class="shp0" d="M345.01 474.66L354.95 476.19L354.95 211C354.95 193.19 351.37 176.62 345.01 162.2L345.01 474.66Z" />
                <path id="Layer" fill-rule="evenodd" class="shp0" d="M216.79 128.07L216.79 454.83L190.07 450.7L190.07 161.06C197 148.17 206.1 136.87 216.79 128.07ZM203.27 282.18C199.27 282.19 196.05 286.29 196.05 291.33C196.05 296.37 199.27 300.5 203.27 300.56C207.3 300.62 210.58 296.52 210.58 291.41C210.58 286.3 207.3 282.17 203.27 282.18Z" />
                <path id="Layer" class="shp0" d="M175 448.37L182.36 449.51L182.36 178.54C177.63 191.95 175 206.6 175 221.82L175 448.37L175 448.37Z" />
            </g>
        </symbol>
        <symbol id="like" viewBox="0 0 512 512">
            <g>
                <path d="M376,30c-27.783,0-53.255,8.804-75.707,26.168c-21.525,16.647-35.856,37.85-44.293,53.268
                    c-8.437-15.419-22.768-36.621-44.293-53.268C189.255,38.804,163.783,30,136,30C58.468,30,0,93.417,0,177.514
                    c0,90.854,72.943,153.015,183.369,247.118c18.752,15.981,40.007,34.095,62.099,53.414C248.38,480.596,252.12,482,256,482
                    s7.62-1.404,10.532-3.953c22.094-19.322,43.348-37.435,62.111-53.425C439.057,330.529,512,268.368,512,177.514
                    C512,93.417,453.532,30,376,30z"/>
            </g>
        </symbol>
        <symbol id="pot" viewBox="0 0 512 512">
            <g>
		    <path d="M383.397,67.447c-16.292-11.642-35.084-20.788-55.472-27.182V15.119c0-8.35-6.769-15.119-15.119-15.119H199.187
			c-8.35,0-15.119,6.769-15.119,15.119v25.145c-20.387,6.394-39.179,15.54-55.471,27.182C92.835,93.002,73.14,127.473,73.14,164.506
			c0,1.289,0.033,2.574,0.082,3.856h30.264c-0.069-1.282-0.109-2.567-0.109-3.856c0-27.001,15.2-52.733,42.801-72.457
			c11.288-8.066,24.061-14.722,37.891-19.858v1.97c0,8.35,6.769,15.119,15.119,15.119h113.62c8.35,0,15.119-6.769,15.119-15.119
			v-1.97c13.831,5.135,26.603,11.792,37.892,19.858c27.601,19.723,42.801,45.456,42.801,72.457c0,1.289-0.04,2.574-0.109,3.856
			h30.265c0.047-1.282,0.082-2.567,0.082-3.856C438.855,127.473,419.16,93.003,383.397,67.447z"/>
            <path d="M487.913,198.599H24.087c-8.35,0-15.119,6.769-15.119,15.119s6.769,15.119,15.119,15.119h22.786
			c-7.248,21.617-10.912,44.166-10.912,67.299c0,57.718,22.927,111.965,64.558,152.748C142.065,489.585,197.281,512,255.997,512
			c58.715,0,113.932-22.415,155.478-63.116c41.631-40.783,64.558-95.03,64.558-152.748c0-23.134-3.664-45.683-10.912-67.299h22.792
			c8.35,0,15.119-6.769,15.119-15.119S496.263,198.599,487.913,198.599z"/>
	        </g>
        </symbol>
        <symbol id="open-book" viewBox="0 0 490.667 490.667">
            <g>
		        <path d="M171.2,398.421c-0.021-0.277-0.491-3.477-0.533-3.755v-9.259c-7.595-0.853-14.997-1.408-21.333-1.408
			c-40.235,0-69.163,7.787-73.365,11.968c-9.024,9.045-23.061,11.819-34.859,6.933c-12.032-4.971-19.776-16.576-19.776-29.568
			V103.68l-13.248,3.307C3.328,108.181,0,112.448,0,117.333V416c0,3.029,1.301,5.931,3.563,7.957
			c1.963,1.749,4.48,2.709,7.104,2.709c0.405,0,0.789-0.021,1.173-0.064l149.909-16.661
			C167.509,409.301,171.691,404.181,171.2,398.421z"/>
            <path d="M482.581,106.987l-13.248-3.307v269.653c0,12.992-7.744,24.597-19.755,29.568c-3.904,1.6-8.021,2.432-12.245,2.432
			c-8.341,0-16.235-3.179-22.229-8.981C409.685,392.747,366.976,384,341.333,384c-7.637,0-14.699,0.341-21.44,0.832l-0.043,10.837
			c-0.043,0.277-0.363,2.475-0.384,2.752c-0.491,5.781,3.691,10.88,9.451,11.52l149.909,16.661c0.384,0.043,0.768,0.064,1.173,0.064
			c2.624,0,5.141-0.96,7.104-2.709c2.261-2.027,3.563-4.928,3.563-7.957V117.333C490.667,112.448,487.339,108.181,482.581,106.987z"
			/>
            <path d="M267.968,395.968c-0.341,0.341-0.768,0.512-1.109,0.832c-1.259,1.152-2.667,2.069-4.117,3.029
			c-1.216,0.789-2.368,1.579-3.669,2.197c-0.533,0.256-0.939,0.661-1.493,0.896c-3.904,1.579-8.021,2.411-12.245,2.411
			c-0.491,0-0.939-0.256-1.429-0.277c-3.2-0.128-6.357-0.725-9.429-1.813c-0.427-0.149-0.875-0.149-1.28-0.32
			c-0.021-0.021-0.064,0-0.085-0.021c-3.499-1.451-6.485-3.584-9.173-6.016c-0.256-0.235-0.576-0.299-0.832-0.533
			c-2.816-1.877-15.765-5.12-31.104-7.808v6.123c0,18.24,22.933,32,53.333,32c30.4,0,53.333-13.76,53.333-32v-7.509
			C281.707,389.803,270.443,393.493,267.968,395.968z"/>
            <path d="M202.667,352c-5.888,0-10.667,4.779-10.667,10.667v4.331c7.488,1.259,14.699,2.731,21.333,4.373v-8.704
			C213.333,356.779,208.555,352,202.667,352z"/>
            <path d="M341.312,64c-8.128,0-24.747,0.448-42.667,2.752v195.499h0.021l24.448-24.448c4.16-4.16,10.923-4.16,15.083,0
			l24.448,24.448V65.301C354.005,64.448,346.411,64,341.312,64z"/>
            <path d="M149.333,64c-18.56,0-80.853,1.771-103.552,24.448c-1.984,2.005-3.115,4.715-3.115,7.552v277.333
			c0,4.309,2.603,8.213,6.592,9.856c3.989,1.685,8.576,0.747,11.627-2.304c12.501-12.523,54.613-18.219,88.448-18.219
			c26.197,0,71.68,8.171,85.333,16.213V78.357C208.384,68.544,166.144,64,149.333,64z M91.307,161.088
			c0.981-0.491,24.384-11.755,58.027-11.755c38.08,0,57.984,11.691,58.816,12.181c5.056,3.029,6.677,9.579,3.648,14.635
			c-1.984,3.349-5.525,5.184-9.131,5.184c-1.877,0-3.776-0.491-5.483-1.515c-0.085-0.043-16.235-9.152-47.851-9.152
			c-28.437,0-48.469,9.493-48.661,9.6c-5.312,2.56-11.691,0.341-14.251-4.949S86.037,163.669,91.307,161.088z M211.819,304.149
			c-2.005,3.349-5.547,5.184-9.152,5.184c-1.856,0-3.755-0.491-5.483-1.515c-0.085-0.043-16.235-9.152-47.851-9.152
			c-28.437,0-48.469,9.493-48.661,9.6c-5.312,2.581-11.669,0.341-14.251-4.928c-2.56-5.291-0.384-11.648,4.885-14.229
			c0.981-0.512,24.384-11.776,58.027-11.776c38.08,0,57.984,11.691,58.816,12.181C213.205,292.544,214.848,299.115,211.819,304.149z
			 M211.819,240.149c-2.005,3.349-5.547,5.184-9.152,5.184c-1.856,0-3.755-0.491-5.483-1.515
			c-0.085-0.043-16.235-9.152-47.851-9.152c-28.437,0-48.469,9.493-48.661,9.6c-5.312,2.56-11.669,0.363-14.251-4.928
			c-2.56-5.291-0.384-11.648,4.885-14.229c0.981-0.512,24.384-11.776,58.027-11.776c38.08,0,57.984,11.691,58.816,12.181
			C213.205,228.544,214.848,235.115,211.819,240.149z"/>
            <path d="M444.885,88.448c-9.941-9.941-36.331-16.555-60.885-20.395V288c0,4.309-2.603,8.213-6.592,9.856
			c-1.323,0.555-2.709,0.811-4.075,0.811c-2.773,0-5.504-1.088-7.552-3.115l-35.115-35.136l-35.115,35.115
			c-3.072,3.051-7.616,3.989-11.627,2.304c-3.989-1.621-6.592-5.525-6.592-9.835V70.421c-7.552,1.728-14.805,3.925-21.333,6.677
			v301.504c15.147-10.88,53.696-15.936,85.333-15.936c28.373,0,79.851,9.6,88.448,18.219c2.048,2.027,4.779,3.115,7.552,3.115
			c1.365,0,2.752-0.256,4.075-0.811c3.989-1.643,6.592-5.547,6.592-9.856V96C448,93.163,446.869,90.453,444.885,88.448z"/>
	        </g>
        </symbol>
        <symbol id="closed-book" viewBox="0 0 351.72 351.72">
            <g>
                <path d="M286.66,0h-30.28v102.48c0,7.2-7.28,10.76-12.92,1.72l-20-32l-20,32c-5.68,9-12.92,5.48-12.92-1.72V0H89.02
                    c-24.541,0.066-44.4,19.979-44.4,44.52v262.8c0.066,24.494,19.906,44.334,44.4,44.4H286.7c5.406-0.009,10.587-2.167,14.4-6
                    c3.833-3.813,5.991-8.994,6-14.4V20.44C307.078,9.16,297.94,0.022,286.66,0z M290.46,298.92l-192.88,0.24
                    c-4.204,0.29-7.549,3.636-7.839,7.839c-0.321,4.65,3.189,8.68,7.839,9.001h192.88l-0.04,15.52c0.002,0.925-0.357,1.815-1,2.48
                    c-0.665,0.643-1.555,1.002-2.48,1H89.02c-15.188,0-27.5-12.312-27.5-27.5c0-15.188,12.312-27.5,27.5-27.5h197.92
                    c1.935,0.022,3.498,1.585,3.52,3.52V298.92z"/>
            </g>
        </symbol>
        <symbol id="search-arrow" viewBox="0 0 490.656 490.656">
            <g>
		        <path d="M487.536,216.467c-4.16-4.16-10.923-4.16-15.083,0L245.339,443.581L18.203,216.467c-4.16-4.16-10.923-4.16-15.083,0
			    c-4.16,4.16-4.16,10.923,0,15.083l234.667,234.667c2.091,2.069,4.821,3.115,7.552,3.115s5.461-1.045,7.531-3.115l234.667-234.667
			    C491.696,227.389,491.696,220.627,487.536,216.467z"/>
                <path d="M487.536,24.445c-4.16-4.16-10.923-4.16-15.083,0L245.339,251.581L18.203,24.467c-4.16-4.16-10.923-4.16-15.083,0
                c-4.16,4.16-4.16,10.923,0,15.083l234.667,234.667c2.091,2.069,4.821,3.115,7.552,3.115s5.461-1.045,7.531-3.136L487.536,39.528
                C491.696,35.368,491.696,28.605,487.536,24.445z"/>
	        </g>
        </symbol>
        <symbol id="decor-line" viewBox="0 0 1280.000000 640.000000">
           <g transform="translate(0.000000,640.000000) scale(0.100000,-0.100000)"
                stroke="none">
                <path d="M1099 4090 c-172 -29 -420 -145 -554 -261 -113 -97 -226 -279 -260
                -420 -14 -55 -16 -94 -12 -168 8 -128 26 -193 97 -338 55 -112 68 -131 157
                -221 185 -187 420 -296 748 -347 136 -21 403 -29 555 -17 115 10 173 22 410
                87 l66 18 40 -26 c64 -43 162 -77 264 -92 124 -19 327 -19 407 0 60 14 68 14
                180 -12 101 -23 141 -27 283 -27 188 -1 258 11 459 76 144 47 244 96 358 179
                45 32 88 59 96 59 8 0 55 -18 104 -41 265 -122 442 -179 631 -204 273 -36 525
                -4 692 87 281 154 428 381 432 670 2 112 -15 185 -68 290 -164 325 -458 519
                -872 573 -296 39 -581 9 -872 -90 -219 -75 -284 -104 -446 -200 l-144 -86
                -112 35 c-256 79 -509 73 -719 -18 -134 -58 -282 -175 -344 -271 -24 -37 -40
                -51 -59 -53 -66 -5 -229 -107 -312 -193 -112 -118 -145 -181 -158 -304 -8 -66
                13 -166 40 -197 15 -15 11 -18 -53 -37 -182 -54 -398 -90 -583 -98 -275 -11
                -512 54 -747 204 -90 57 -139 101 -214 191 -118 142 -181 300 -183 457 -1 99
                18 158 83 257 148 225 429 382 747 417 245 28 614 -71 762 -204 125 -112 186
                -255 163 -379 -14 -75 -38 -112 -119 -186 -151 -136 -352 -199 -601 -187 -284
                13 -487 141 -484 304 3 135 104 221 302 259 80 16 103 16 179 6 125 -18 272
                -95 272 -142 0 -29 -50 -81 -98 -103 -30 -13 -77 -21 -144 -24 l-99 -6 3 -41
                3 -41 120 1 c149 0 213 18 278 74 77 68 86 152 26 240 -57 84 -168 138 -336
                166 -112 18 -169 18 -267 -1 -153 -29 -288 -121 -343 -233 -37 -75 -38 -186
                -3 -276 51 -132 198 -256 375 -316 85 -28 118 -34 216 -38 285 -11 513 67 690
                236 105 100 144 157 158 236 23 126 4 288 -44 371 -40 69 -108 151 -170 203
                -110 91 -318 178 -500 207 -122 20 -343 18 -476 -5z m4251 -305 c205 -27 422
                -120 535 -230 100 -98 143 -163 188 -287 34 -97 40 -125 40 -193 0 -215 -139
                -429 -343 -527 -200 -95 -371 -123 -592 -95 -157 20 -229 41 -442 131 -87 37
                -168 71 -180 75 -18 7 -13 12 40 39 33 17 115 62 182 101 l121 71 68 -31 c139
                -63 301 -89 433 -70 107 16 153 33 218 82 130 99 147 266 41 414 -39 54 -151
                138 -235 176 -121 55 -221 74 -389 72 -228 -1 -353 -32 -576 -142 l-106 -53
                -58 38 c-33 20 -92 52 -132 71 -76 35 -83 46 -35 56 15 3 63 26 106 52 230
                136 488 229 741 268 46 8 257 -3 375 -18z m-1755 -272 c33 -8 66 -18 74 -22 9
                -6 -34 -42 -142 -120 -86 -61 -161 -111 -168 -111 -6 0 -42 9 -78 19 -72 22
                -217 39 -353 43 -49 2 -88 6 -88 10 0 5 5 8 11 8 6 0 37 18 69 39 206 141 453
                190 675 134z m500 -189 c147 -74 148 -75 94 -110 -24 -15 -88 -60 -141 -101
                l-98 -73 -47 23 c-27 13 -92 41 -146 62 -53 21 -94 42 -89 47 19 19 298 208
                307 208 6 0 60 -25 120 -56z m1210 20 c80 -21 184 -77 239 -128 69 -64 85
                -153 41 -218 -68 -101 -265 -137 -455 -84 l-85 23 38 17 c91 38 171 56 248 56
                78 0 79 0 94 31 21 39 10 52 -58 75 -40 13 -70 15 -141 11 -90 -6 -257 -42
                -347 -74 l-46 -16 -124 74 c-68 41 -133 77 -143 82 -10 4 -17 9 -15 11 2 2 48
                22 102 45 271 112 471 141 652 95z m-2232 -160 c62 -9 120 -19 129 -23 12 -4
                -48 -51 -213 -169 -126 -90 -236 -165 -243 -168 -34 -13 -33 306 1 345 5 7
                140 29 181 30 18 1 84 -6 145 -15z m1387 -69 c7 -9 60 -43 117 -77 57 -34 102
                -65 101 -69 -6 -15 -283 -209 -293 -205 -23 9 -246 159 -242 163 12 11 293
                203 298 203 4 0 12 -7 19 -15z m-1888 -88 c-5 -105 14 -193 49 -228 11 -11 19
                -23 16 -25 -8 -8 -318 -164 -326 -164 -17 0 -34 91 -28 147 12 118 114 260
                237 331 30 17 55 32 56 32 1 0 -1 -42 -4 -93z m1066 -1 c59 -24 131 -51 160
                -61 30 -9 50 -21 45 -25 -4 -4 -123 -87 -264 -184 -281 -193 -455 -292 -497
                -281 -31 8 -126 68 -172 109 -19 17 -46 38 -60 47 l-25 16 110 56 c61 31 214
                125 340 211 127 85 236 155 243 155 7 1 61 -19 120 -43z m521 -270 l143 -73
                -104 -57 c-281 -153 -401 -200 -583 -226 -68 -9 -265 -3 -265 9 0 3 39 26 87
                51 105 54 263 154 438 278 72 51 133 92 136 92 3 0 70 -33 148 -74z m-1394
                -226 c28 -28 67 -62 87 -77 21 -14 35 -30 31 -36 -3 -6 -49 -8 -122 -4 -87 4
                -136 11 -198 31 -46 15 -83 30 -83 34 1 7 205 98 225 101 6 0 33 -22 60 -49z"/>
                <path d="M11174 4094 c-172 -29 -392 -122 -494 -209 -58 -51 -127 -134 -165
                -200 -48 -83 -67 -245 -44 -371 14 -78 51 -134 158 -237 177 -170 404 -247
                696 -234 104 5 133 10 219 40 116 42 189 88 270 170 66 68 103 139 119 231 35
                207 -130 381 -406 427 -93 16 -242 2 -351 -31 -236 -74 -327 -258 -188 -381
                64 -56 129 -73 277 -74 l120 0 3 41 3 41 -99 6 c-67 3 -114 11 -144 24 -48 22
                -98 74 -98 103 0 48 145 124 271 141 75 11 98 10 180 -5 200 -39 301 -126 302
                -261 2 -162 -202 -289 -484 -302 -187 -9 -333 21 -482 100 -65 34 -175 131
                -206 181 -33 52 -44 129 -30 209 20 125 141 273 279 342 183 91 473 147 653
                124 107 -13 301 -71 389 -115 190 -96 361 -272 415 -427 51 -146 -7 -384 -132
                -547 -110 -142 -228 -235 -409 -320 -121 -58 -206 -84 -346 -106 -203 -33
                -539 2 -823 87 -64 19 -68 22 -53 37 17 19 46 122 46 162 -1 65 -31 166 -67
                219 -50 77 -137 166 -206 213 -67 46 -175 98 -207 101 -15 1 -33 19 -54 52
                -60 93 -209 210 -343 269 -212 94 -479 100 -736 17 l-97 -32 -108 64 c-174
                104 -194 114 -298 155 -398 158 -706 203 -1059 156 -415 -55 -704 -245 -870
                -573 -54 -107 -68 -168 -67 -282 1 -284 148 -521 414 -667 133 -73 299 -112
                482 -112 284 0 474 48 845 214 57 25 110 46 119 46 8 0 44 -22 81 -49 147
                -109 293 -175 512 -231 103 -26 150 -33 274 -37 140 -5 160 -3 300 26 143 29
                152 30 205 16 71 -19 273 -19 407 0 106 15 200 47 268 92 l39 26 61 -17 c314
                -87 424 -102 700 -93 463 15 815 146 1039 389 62 67 88 106 136 203 33 66 67
                147 75 180 25 94 31 248 11 323 -35 137 -131 297 -242 404 -89 84 -278 191
                -439 246 -143 49 -441 67 -621 36z m-3252 -318 c221 -51 408 -125 603 -240 41
                -25 94 -50 117 -56 l40 -11 -104 -53 c-57 -28 -119 -63 -137 -75 l-33 -24 -96
                48 c-233 115 -359 147 -587 148 -124 1 -165 -2 -237 -20 -277 -70 -458 -241
                -458 -432 0 -73 47 -160 112 -210 65 -49 111 -66 218 -82 132 -19 294 7 433
                70 l68 31 102 -61 c56 -33 137 -77 179 -97 42 -20 77 -39 77 -42 1 -8 -290
                -127 -403 -166 -193 -66 -444 -80 -621 -33 -280 73 -446 215 -525 450 -63 186
                10 435 179 608 85 87 174 142 303 189 124 46 182 60 298 71 58 6 121 13 140
                15 75 9 230 -5 332 -28z m1518 -246 c151 -18 258 -58 391 -146 37 -24 72 -44
                78 -44 6 0 11 -3 11 -8 0 -4 -46 -9 -103 -10 -123 -4 -278 -24 -363 -48 l-60
                -17 -161 114 c-89 63 -160 115 -158 117 13 14 155 41 265 51 9 0 54 -4 100 -9z
                m-487 -260 c81 -56 147 -103 145 -105 -2 -1 -46 -19 -98 -40 -52 -21 -117 -48
                -144 -61 l-49 -24 -76 58 c-42 32 -105 78 -140 101 -56 38 -61 45 -48 58 27
                27 222 123 242 120 11 -2 87 -50 168 -107z m-1213 85 c124 -17 173 -30 343
                -97 114 -45 152 -68 113 -68 -7 0 -71 -35 -142 -77 l-129 -78 -80 27 c-227 76
                -433 88 -505 30 -22 -18 -22 -19 -6 -50 16 -32 17 -32 97 -32 64 0 100 -6 175
                -32 52 -17 94 -35 94 -38 0 -13 -126 -43 -201 -48 -246 -15 -394 97 -334 254
                41 107 252 214 440 222 17 1 77 -5 135 -13z m2177 -166 c43 -7 83 -16 90 -21
                6 -5 19 -41 28 -80 16 -63 16 -81 5 -170 -10 -75 -17 -98 -27 -94 -7 3 -117
                79 -243 168 -260 183 -252 167 -95 192 116 18 148 18 242 5z m-1445 -160 c73
                -51 137 -96 141 -99 7 -6 -204 -153 -238 -166 -10 -4 -287 190 -293 205 -1 5
                44 36 102 70 58 34 110 69 117 77 7 8 18 13 25 10 7 -3 73 -46 146 -97z m1873
                -25 c107 -104 156 -240 125 -349 -7 -25 -17 -45 -22 -45 -13 0 -298 145 -323
                164 -18 14 -19 15 -2 16 12 0 26 17 40 48 19 40 22 65 22 163 l0 116 49 -26
                c26 -14 76 -53 111 -87z m-843 -102 c139 -92 292 -185 340 -207 48 -22 86 -43
                85 -46 -7 -22 -211 -165 -249 -174 -42 -11 -220 90 -501 284 -142 99 -260 181
                -263 184 -3 3 23 14 58 26 35 12 106 39 158 61 52 22 101 40 107 40 7 0 126
                -75 265 -168z m-666 -129 c165 -119 383 -260 476 -308 54 -27 98 -53 98 -56 0
                -12 -197 -18 -265 -9 -182 26 -306 75 -594 232 l-93 51 138 72 c77 40 144 74
                150 74 6 1 47 -25 90 -56z m1336 -243 c59 -25 108 -48 108 -52 0 -4 -37 -19
                -82 -34 -64 -20 -111 -27 -205 -32 -79 -3 -123 -1 -123 5 0 6 17 22 38 36 20
                15 59 49 87 77 27 28 54 49 60 48 5 -2 58 -23 117 -48z"/>
            </g>
        </symbol>
        <symbol id="facebook" viewBox="0 0 167.657 167.657">
            <g>
                <path d="M83.829,0.349C37.532,0.349,0,37.881,0,84.178c0,41.523,30.222,75.911,69.848,82.57v-65.081H49.626
                    v-23.42h20.222V60.978c0-20.037,12.238-30.956,30.115-30.956c8.562,0,15.92,0.638,18.056,0.919v20.944l-12.399,0.006
                    c-9.72,0-11.594,4.618-11.594,11.397v14.947h23.193l-3.025,23.42H94.026v65.653c41.476-5.048,73.631-40.312,73.631-83.154
                    C167.657,37.881,130.125,0.349,83.829,0.349z"/>
            </g>   
        </symbol>
        <symbol id="instagram" viewBox="0 0 512 512">
            <g>
                <path d="m305 256c0 27.0625-21.9375 49-49 49s-49-21.9375-49-49 21.9375-49 49-49 49 21.9375 49 49zm0 0"/><path d="m370.59375 169.304688c-2.355469-6.382813-6.113281-12.160157-10.996094-16.902344-4.742187-4.882813-10.515625-8.640625-16.902344-10.996094-5.179687-2.011719-12.960937-4.40625-27.292968-5.058594-15.503906-.707031-20.152344-.859375-59.402344-.859375-39.253906 0-43.902344.148438-59.402344.855469-14.332031.65625-22.117187 3.050781-27.292968 5.0625-6.386719 2.355469-12.164063 6.113281-16.902344 10.996094-4.882813 4.742187-8.640625 10.515625-11 16.902344-2.011719 5.179687-4.40625 12.964843-5.058594 27.296874-.707031 15.5-.859375 20.148438-.859375 59.402344 0 39.25.152344 43.898438.859375 59.402344.652344 14.332031 3.046875 22.113281 5.058594 27.292969 2.359375 6.386719 6.113281 12.160156 10.996094 16.902343 4.742187 4.882813 10.515624 8.640626 16.902343 10.996094 5.179688 2.015625 12.964844 4.410156 27.296875 5.0625 15.5.707032 20.144532.855469 59.398438.855469 39.257812 0 43.90625-.148437 59.402344-.855469 14.332031-.652344 22.117187-3.046875 27.296874-5.0625 12.820313-4.945312 22.953126-15.078125 27.898438-27.898437 2.011719-5.179688 4.40625-12.960938 5.0625-27.292969.707031-15.503906.855469-20.152344.855469-59.402344 0-39.253906-.148438-43.902344-.855469-59.402344-.652344-14.332031-3.046875-22.117187-5.0625-27.296874zm-114.59375 162.179687c-41.691406 0-75.488281-33.792969-75.488281-75.484375s33.796875-75.484375 75.488281-75.484375c41.6875 0 75.484375 33.792969 75.484375 75.484375s-33.796875 75.484375-75.484375 75.484375zm78.46875-136.3125c-9.742188 0-17.640625-7.898437-17.640625-17.640625s7.898437-17.640625 17.640625-17.640625 17.640625 7.898437 17.640625 17.640625c-.003906 9.742188-7.898437 17.640625-17.640625 17.640625zm0 0"/><path d="m256 0c-141.363281 0-256 114.636719-256 256s114.636719 256 256 256 256-114.636719 256-256-114.636719-256-256-256zm146.113281 316.605469c-.710937 15.648437-3.199219 26.332031-6.832031 35.683593-7.636719 19.746094-23.246094 35.355469-42.992188 42.992188-9.347656 3.632812-20.035156 6.117188-35.679687 6.832031-15.675781.714844-20.683594.886719-60.605469.886719-39.925781 0-44.929687-.171875-60.609375-.886719-15.644531-.714843-26.332031-3.199219-35.679687-6.832031-9.8125-3.691406-18.695313-9.476562-26.039063-16.957031-7.476562-7.339844-13.261719-16.226563-16.953125-26.035157-3.632812-9.347656-6.121094-20.035156-6.832031-35.679687-.722656-15.679687-.890625-20.6875-.890625-60.609375s.167969-44.929688.886719-60.605469c.710937-15.648437 3.195312-26.332031 6.828125-35.683593 3.691406-9.808594 9.480468-18.695313 16.960937-26.035157 7.339844-7.480469 16.226563-13.265625 26.035157-16.957031 9.351562-3.632812 20.035156-6.117188 35.683593-6.832031 15.675781-.714844 20.683594-.886719 60.605469-.886719s44.929688.171875 60.605469.890625c15.648437.710937 26.332031 3.195313 35.683593 6.824219 9.808594 3.691406 18.695313 9.480468 26.039063 16.960937 7.476563 7.34375 13.265625 16.226563 16.953125 26.035157 3.636719 9.351562 6.121094 20.035156 6.835938 35.683593.714843 15.675781.882812 20.683594.882812 60.605469s-.167969 44.929688-.886719 60.605469zm0 0"/>
            </g>
        </symbol>
        <symbol id="telegram" viewBox="0 0 24 24">
            <g>
                <path d="m12 24c6.629 0 12-5.371 12-12s-5.371-12-12-12-12 5.371-12 12 5.371 12 12 12zm-6.509-12.26 11.57-4.461c.537-.194 1.006.131.832.943l.001-.001-1.97 9.281c-.146.658-.537.818-1.084.508l-3-2.211-1.447 1.394c-.16.16-.295.295-.605.295l.213-3.053 5.56-5.023c.242-.213-.054-.333-.373-.121l-6.871 4.326-2.962-.924c-.643-.204-.657-.643.136-.953z"/>
            </g>
        </symbol>
        <symbol id="catalog-arrow" viewBox="0 0 490.8 490.8">
            <g>
                <path d="M231.696,3.128c-4.237-4.093-10.99-3.975-15.083,0.262c-3.992,4.134-3.992,10.687,0,14.82
                    l227.115,227.136L216.592,472.461c-4.237,4.093-4.355,10.845-0.262,15.083c4.093,4.237,10.845,4.354,15.083,0.262
                    c0.089-0.086,0.176-0.173,0.262-0.262l234.667-234.667c4.164-4.165,4.164-10.917,0-15.083L231.696,3.128z"/>
                <path d="M274.363,237.795L39.696,3.128c-4.237-4.093-10.99-3.975-15.083,0.262
                    c-3.992,4.134-3.992,10.687,0,14.821l227.115,227.136L24.592,472.461c-4.237,4.093-4.354,10.845-0.262,15.083
                    c4.093,4.237,10.845,4.354,15.083,0.262c0.089-0.086,0.176-0.173,0.262-0.262l234.667-234.667
                    C278.511,248.718,278.521,241.966,274.363,237.795z"/>
            </g>
        </symbol>
    </svg>